<mxfile host="app.diagrams.net" modified="2023-04-23T05:36:10.616Z" agent="Mozilla/5.0 (Windows NT 10.0; Win64; x64) AppleWebKit/537.36 (KHTML, like Gecko) Chrome/112.0.0.0 Safari/537.36" etag="H31-D3ZqT5LUM710ssVc" version="21.2.1" type="device">
  <diagram name="Page-1" id="E4oAnfKi09LX9wl_8QjC">
    <mxGraphModel dx="1348" dy="613" grid="1" gridSize="10" guides="1" tooltips="1" connect="1" arrows="1" fold="1" page="1" pageScale="1" pageWidth="827" pageHeight="1169" math="0" shadow="0">
      <root>
        <mxCell id="0" />
        <mxCell id="1" parent="0" />
        <mxCell id="pgVYgCU15iR8FbgH_-my-4" value="" style="ellipse;whiteSpace=wrap;html=1;aspect=fixed;fontSize=16;" vertex="1" parent="1">
          <mxGeometry x="200" y="160" width="40" height="40" as="geometry" />
        </mxCell>
        <mxCell id="pgVYgCU15iR8FbgH_-my-58" style="edgeStyle=none;curved=1;rounded=0;orthogonalLoop=1;jettySize=auto;html=1;exitX=0.5;exitY=1;exitDx=0;exitDy=0;entryX=0.5;entryY=0;entryDx=0;entryDy=0;fontSize=12;startSize=8;endSize=8;" edge="1" parent="1" source="pgVYgCU15iR8FbgH_-my-6" target="pgVYgCU15iR8FbgH_-my-57">
          <mxGeometry relative="1" as="geometry" />
        </mxCell>
        <mxCell id="pgVYgCU15iR8FbgH_-my-6" value="Access Account" style="rounded=1;whiteSpace=wrap;html=1;fontSize=16;" vertex="1" parent="1">
          <mxGeometry x="364" y="40" width="100" height="40" as="geometry" />
        </mxCell>
        <mxCell id="pgVYgCU15iR8FbgH_-my-21" style="edgeStyle=orthogonalEdgeStyle;rounded=0;orthogonalLoop=1;jettySize=auto;html=1;exitX=0.5;exitY=1;exitDx=0;exitDy=0;entryX=0.5;entryY=0;entryDx=0;entryDy=0;fontSize=12;startSize=8;endSize=8;" edge="1" parent="1" source="pgVYgCU15iR8FbgH_-my-7" target="pgVYgCU15iR8FbgH_-my-9">
          <mxGeometry relative="1" as="geometry" />
        </mxCell>
        <mxCell id="pgVYgCU15iR8FbgH_-my-66" style="edgeStyle=none;curved=1;rounded=0;orthogonalLoop=1;jettySize=auto;html=1;exitX=1;exitY=0.25;exitDx=0;exitDy=0;entryX=0;entryY=0.25;entryDx=0;entryDy=0;fontSize=12;startSize=8;endSize=8;" edge="1" parent="1" source="pgVYgCU15iR8FbgH_-my-7" target="pgVYgCU15iR8FbgH_-my-8">
          <mxGeometry relative="1" as="geometry" />
        </mxCell>
        <mxCell id="pgVYgCU15iR8FbgH_-my-68" style="edgeStyle=orthogonalEdgeStyle;rounded=0;orthogonalLoop=1;jettySize=auto;html=1;exitX=0.25;exitY=0;exitDx=0;exitDy=0;entryX=0;entryY=0.5;entryDx=0;entryDy=0;fontSize=12;startSize=8;endSize=8;" edge="1" parent="1" source="pgVYgCU15iR8FbgH_-my-7" target="pgVYgCU15iR8FbgH_-my-57">
          <mxGeometry relative="1" as="geometry" />
        </mxCell>
        <mxCell id="pgVYgCU15iR8FbgH_-my-7" value="Add/manage Products" style="rounded=1;whiteSpace=wrap;html=1;fontSize=16;" vertex="1" parent="1">
          <mxGeometry x="294" y="160" width="100" height="40" as="geometry" />
        </mxCell>
        <mxCell id="pgVYgCU15iR8FbgH_-my-22" style="edgeStyle=orthogonalEdgeStyle;rounded=0;orthogonalLoop=1;jettySize=auto;html=1;exitX=0.5;exitY=1;exitDx=0;exitDy=0;entryX=0.5;entryY=0;entryDx=0;entryDy=0;fontSize=12;startSize=8;endSize=8;" edge="1" parent="1" source="pgVYgCU15iR8FbgH_-my-8" target="pgVYgCU15iR8FbgH_-my-9">
          <mxGeometry relative="1" as="geometry" />
        </mxCell>
        <mxCell id="pgVYgCU15iR8FbgH_-my-67" style="edgeStyle=none;curved=1;rounded=0;orthogonalLoop=1;jettySize=auto;html=1;exitX=0;exitY=0.75;exitDx=0;exitDy=0;entryX=1;entryY=0.75;entryDx=0;entryDy=0;fontSize=12;startSize=8;endSize=8;" edge="1" parent="1" source="pgVYgCU15iR8FbgH_-my-8" target="pgVYgCU15iR8FbgH_-my-7">
          <mxGeometry relative="1" as="geometry" />
        </mxCell>
        <mxCell id="pgVYgCU15iR8FbgH_-my-69" style="edgeStyle=orthogonalEdgeStyle;rounded=0;orthogonalLoop=1;jettySize=auto;html=1;exitX=0.75;exitY=0;exitDx=0;exitDy=0;entryX=1;entryY=0.5;entryDx=0;entryDy=0;fontSize=12;startSize=8;endSize=8;" edge="1" parent="1" source="pgVYgCU15iR8FbgH_-my-8" target="pgVYgCU15iR8FbgH_-my-57">
          <mxGeometry relative="1" as="geometry" />
        </mxCell>
        <mxCell id="pgVYgCU15iR8FbgH_-my-8" value="Manage Orders" style="rounded=1;whiteSpace=wrap;html=1;fontSize=16;" vertex="1" parent="1">
          <mxGeometry x="434" y="160" width="100" height="40" as="geometry" />
        </mxCell>
        <mxCell id="pgVYgCU15iR8FbgH_-my-70" style="edgeStyle=none;curved=1;rounded=0;orthogonalLoop=1;jettySize=auto;html=1;exitX=0;exitY=0.5;exitDx=0;exitDy=0;entryX=1;entryY=0.5;entryDx=0;entryDy=0;fontSize=12;startSize=8;endSize=8;" edge="1" parent="1" source="pgVYgCU15iR8FbgH_-my-9" target="pgVYgCU15iR8FbgH_-my-10">
          <mxGeometry relative="1" as="geometry" />
        </mxCell>
        <mxCell id="pgVYgCU15iR8FbgH_-my-9" value="Sales/Demand Charts" style="rounded=1;whiteSpace=wrap;html=1;fontSize=16;" vertex="1" parent="1">
          <mxGeometry x="354" y="240" width="110" height="40" as="geometry" />
        </mxCell>
        <mxCell id="pgVYgCU15iR8FbgH_-my-62" style="edgeStyle=none;curved=1;rounded=0;orthogonalLoop=1;jettySize=auto;html=1;exitX=0.5;exitY=0;exitDx=0;exitDy=0;entryX=0.5;entryY=1;entryDx=0;entryDy=0;fontSize=12;startSize=8;endSize=8;" edge="1" parent="1" source="pgVYgCU15iR8FbgH_-my-10" target="pgVYgCU15iR8FbgH_-my-4">
          <mxGeometry relative="1" as="geometry" />
        </mxCell>
        <mxCell id="pgVYgCU15iR8FbgH_-my-10" value="Log Out" style="rounded=1;whiteSpace=wrap;html=1;fontSize=16;" vertex="1" parent="1">
          <mxGeometry x="170" y="240" width="100" height="40" as="geometry" />
        </mxCell>
        <mxCell id="pgVYgCU15iR8FbgH_-my-30" style="edgeStyle=none;curved=1;rounded=0;orthogonalLoop=1;jettySize=auto;html=1;exitX=1;exitY=0.5;exitDx=0;exitDy=0;entryX=0;entryY=0.5;entryDx=0;entryDy=0;fontSize=12;startSize=8;endSize=8;" edge="1" parent="1" source="pgVYgCU15iR8FbgH_-my-13" target="pgVYgCU15iR8FbgH_-my-6">
          <mxGeometry relative="1" as="geometry" />
        </mxCell>
        <mxCell id="pgVYgCU15iR8FbgH_-my-32" value="valid" style="edgeLabel;html=1;align=center;verticalAlign=middle;resizable=0;points=[];fontSize=16;" vertex="1" connectable="0" parent="pgVYgCU15iR8FbgH_-my-30">
          <mxGeometry x="0.3435" y="-1" relative="1" as="geometry">
            <mxPoint x="-17" y="-1" as="offset" />
          </mxGeometry>
        </mxCell>
        <mxCell id="pgVYgCU15iR8FbgH_-my-52" style="edgeStyle=orthogonalEdgeStyle;rounded=0;orthogonalLoop=1;jettySize=auto;html=1;exitX=0.5;exitY=1;exitDx=0;exitDy=0;entryX=1;entryY=0.5;entryDx=0;entryDy=0;fontSize=12;startSize=8;endSize=8;" edge="1" parent="1" source="pgVYgCU15iR8FbgH_-my-13" target="pgVYgCU15iR8FbgH_-my-41">
          <mxGeometry relative="1" as="geometry">
            <Array as="points">
              <mxPoint x="290" y="140" />
            </Array>
          </mxGeometry>
        </mxCell>
        <mxCell id="pgVYgCU15iR8FbgH_-my-55" value="Invalid" style="edgeLabel;html=1;align=center;verticalAlign=middle;resizable=0;points=[];fontSize=16;" vertex="1" connectable="0" parent="pgVYgCU15iR8FbgH_-my-52">
          <mxGeometry x="-0.4746" y="4" relative="1" as="geometry">
            <mxPoint x="-29" y="-4" as="offset" />
          </mxGeometry>
        </mxCell>
        <mxCell id="pgVYgCU15iR8FbgH_-my-13" value="" style="rhombus;whiteSpace=wrap;html=1;fontSize=16;" vertex="1" parent="1">
          <mxGeometry x="270" y="40" width="40" height="40" as="geometry" />
        </mxCell>
        <mxCell id="pgVYgCU15iR8FbgH_-my-38" value="" style="edgeStyle=none;curved=1;rounded=0;orthogonalLoop=1;jettySize=auto;html=1;fontSize=12;startSize=8;endSize=8;" edge="1" parent="1" source="pgVYgCU15iR8FbgH_-my-37" target="pgVYgCU15iR8FbgH_-my-13">
          <mxGeometry relative="1" as="geometry" />
        </mxCell>
        <mxCell id="pgVYgCU15iR8FbgH_-my-37" value="Login" style="rounded=1;whiteSpace=wrap;html=1;fontSize=16;" vertex="1" parent="1">
          <mxGeometry x="170" y="40" width="80" height="40" as="geometry" />
        </mxCell>
        <mxCell id="pgVYgCU15iR8FbgH_-my-64" style="edgeStyle=none;curved=1;rounded=0;orthogonalLoop=1;jettySize=auto;html=1;exitX=0.5;exitY=0;exitDx=0;exitDy=0;entryX=0.5;entryY=1;entryDx=0;entryDy=0;fontSize=12;startSize=8;endSize=8;" edge="1" parent="1" source="pgVYgCU15iR8FbgH_-my-41" target="pgVYgCU15iR8FbgH_-my-49">
          <mxGeometry relative="1" as="geometry" />
        </mxCell>
        <mxCell id="pgVYgCU15iR8FbgH_-my-41" value="Access App" style="rounded=1;whiteSpace=wrap;html=1;fontSize=16;" vertex="1" parent="1">
          <mxGeometry x="-40" y="120" width="80" height="40" as="geometry" />
        </mxCell>
        <mxCell id="pgVYgCU15iR8FbgH_-my-65" style="edgeStyle=none;curved=1;rounded=0;orthogonalLoop=1;jettySize=auto;html=1;exitX=0.5;exitY=0;exitDx=0;exitDy=0;entryX=0.5;entryY=1;entryDx=0;entryDy=0;fontSize=12;startSize=8;endSize=8;" edge="1" parent="1" source="pgVYgCU15iR8FbgH_-my-42" target="pgVYgCU15iR8FbgH_-my-41">
          <mxGeometry relative="1" as="geometry" />
        </mxCell>
        <mxCell id="pgVYgCU15iR8FbgH_-my-42" value="" style="ellipse;whiteSpace=wrap;html=1;aspect=fixed;fontSize=16;" vertex="1" parent="1">
          <mxGeometry x="-20" y="200" width="40" height="40" as="geometry" />
        </mxCell>
        <mxCell id="pgVYgCU15iR8FbgH_-my-51" style="edgeStyle=none;curved=1;rounded=0;orthogonalLoop=1;jettySize=auto;html=1;exitX=1;exitY=0.5;exitDx=0;exitDy=0;entryX=0;entryY=0.5;entryDx=0;entryDy=0;fontSize=12;startSize=8;endSize=8;" edge="1" parent="1" source="pgVYgCU15iR8FbgH_-my-49" target="pgVYgCU15iR8FbgH_-my-37">
          <mxGeometry relative="1" as="geometry" />
        </mxCell>
        <mxCell id="pgVYgCU15iR8FbgH_-my-56" value="Confirm&lt;br&gt;Registration" style="edgeLabel;html=1;align=center;verticalAlign=middle;resizable=0;points=[];fontSize=16;" vertex="1" connectable="0" parent="pgVYgCU15iR8FbgH_-my-51">
          <mxGeometry x="-0.475" y="1" relative="1" as="geometry">
            <mxPoint x="26" as="offset" />
          </mxGeometry>
        </mxCell>
        <mxCell id="pgVYgCU15iR8FbgH_-my-49" value="Register" style="rounded=1;whiteSpace=wrap;html=1;fontSize=16;" vertex="1" parent="1">
          <mxGeometry x="-40" y="40" width="80" height="40" as="geometry" />
        </mxCell>
        <mxCell id="pgVYgCU15iR8FbgH_-my-59" style="edgeStyle=orthogonalEdgeStyle;rounded=0;orthogonalLoop=1;jettySize=auto;html=1;exitX=0.5;exitY=1;exitDx=0;exitDy=0;entryX=0.5;entryY=0;entryDx=0;entryDy=0;fontSize=12;startSize=8;endSize=8;" edge="1" parent="1" source="pgVYgCU15iR8FbgH_-my-57" target="pgVYgCU15iR8FbgH_-my-7">
          <mxGeometry relative="1" as="geometry">
            <Array as="points">
              <mxPoint x="414" y="150" />
              <mxPoint x="344" y="150" />
            </Array>
          </mxGeometry>
        </mxCell>
        <mxCell id="pgVYgCU15iR8FbgH_-my-60" style="edgeStyle=orthogonalEdgeStyle;rounded=0;orthogonalLoop=1;jettySize=auto;html=1;exitX=0.5;exitY=1;exitDx=0;exitDy=0;entryX=0.5;entryY=0;entryDx=0;entryDy=0;fontSize=12;startSize=8;endSize=8;" edge="1" parent="1" source="pgVYgCU15iR8FbgH_-my-57" target="pgVYgCU15iR8FbgH_-my-8">
          <mxGeometry relative="1" as="geometry">
            <Array as="points">
              <mxPoint x="414" y="150" />
              <mxPoint x="484" y="150" />
            </Array>
          </mxGeometry>
        </mxCell>
        <mxCell id="pgVYgCU15iR8FbgH_-my-57" value="Manage Account" style="rounded=1;whiteSpace=wrap;html=1;fontSize=16;" vertex="1" parent="1">
          <mxGeometry x="364" y="100" width="100" height="40" as="geometry" />
        </mxCell>
      </root>
    </mxGraphModel>
  </diagram>
</mxfile>
